<?xml version="1.0" standalone="no"?>
<!DOCTYPE svg PUBLIC "-//W3C//DTD SVG 20010904//EN"
 "http://www.w3.org/TR/2001/REC-SVG-20010904/DTD/svg10.dtd">
<svg version="1.0" xmlns="http://www.w3.org/2000/svg"
 width="800.000000pt" height="800.000000pt" viewBox="0 0 800.000000 800.000000"
 preserveAspectRatio="xMidYMid meet">

<g transform="translate(0.000000,800.000000) scale(0.100000,-0.100000)"
fill="#000000" stroke="none">
<path d="M3410 7991 c-76 -23 -155 -97 -193 -179 -22 -47 -22 -51 -27 -962
l-5 -915 -23 -50 c-43 -94 -114 -145 -201 -145 -27 0 -61 4 -75 10 -43 16
-103 78 -127 133 -23 51 -24 62 -29 412 -5 347 -6 362 -27 401 -34 63 -69 100
-118 124 -39 19 -59 21 -149 18 -97 -3 -107 -5 -148 -33 -49 -35 -102 -117
-112 -172 -3 -21 -6 -1204 -6 -2630 l0 -2592 21 -56 c23 -63 70 -115 129 -145
51 -26 204 -29 253 -4 45 23 105 82 130 129 21 38 22 56 28 400 5 299 8 367
22 402 67 177 266 214 373 70 61 -82 58 -32 64 -1027 5 -907 5 -915 26 -960
49 -104 162 -190 249 -190 48 0 143 44 187 87 20 19 49 63 65 97 l28 61 3 265
3 265 32 20 c18 11 39 23 47 27 8 5 42 26 75 48 33 21 84 54 114 72 29 18 64
40 76 48 13 8 59 37 102 63 43 27 104 65 136 85 31 20 168 107 304 192 135 85
312 196 392 247 80 51 180 113 221 138 41 25 102 64 135 85 33 21 94 60 135
85 41 25 113 70 160 100 89 57 177 111 213 133 12 7 49 30 82 52 33 21 94 60
135 85 101 62 522 328 749 472 36 23 100 63 141 88 98 60 319 198 480 301 25
16 52 33 62 39 43 26 125 77 143 88 10 7 41 27 67 45 26 17 50 32 52 32 17 0
102 69 125 101 89 122 57 326 -63 407 -40 27 -58 32 -105 32 -60 0 -91 -16
-311 -155 -47 -30 -109 -69 -139 -87 -29 -18 -63 -40 -76 -48 -13 -8 -47 -30
-76 -48 -30 -18 -153 -95 -274 -172 -121 -76 -322 -203 -448 -282 -125 -79
-289 -182 -365 -230 -75 -48 -171 -108 -212 -133 -41 -25 -102 -64 -135 -85
-33 -21 -95 -60 -138 -87 -43 -26 -89 -55 -102 -63 -12 -8 -47 -30 -76 -48
-30 -18 -81 -51 -114 -72 -33 -22 -69 -44 -80 -50 -11 -6 -47 -28 -80 -50 -33
-21 -94 -60 -135 -85 -41 -25 -109 -67 -150 -94 -100 -63 -531 -335 -600 -378
-30 -19 -82 -52 -115 -73 -33 -21 -94 -60 -135 -85 -41 -25 -114 -71 -162
-100 l-88 -55 0 1725 c0 949 3 1725 8 1724 4 0 57 -22 117 -48 l110 -47 -2
-35 c-1 -19 -13 -118 -27 -222 -40 -287 -32 -446 30 -619 36 -101 51 -126 313
-530 l230 -356 -156 -464 c-143 -423 -157 -469 -157 -535 -1 -39 2 -74 5 -77
3 -4 93 48 200 116 107 67 252 158 323 203 l130 81 108 324 c60 179 111 350
114 380 7 60 -9 156 -33 205 -8 17 -54 90 -100 163 -72 112 -84 136 -72 146
23 21 169 106 182 106 7 0 98 -30 202 -66 105 -36 198 -68 207 -71 9 -3 34
-46 58 -101 62 -142 200 -463 211 -489 8 -23 10 -22 96 31 49 30 120 74 158
97 39 23 100 62 137 86 37 23 72 43 77 43 6 0 11 4 11 9 0 17 -319 749 -341
783 -33 51 -66 68 -264 137 -99 35 -241 85 -315 111 -74 26 -138 54 -142 61
-11 22 -127 853 -120 860 4 4 210 9 458 11 l450 5 48 24 c218 109 216 477 -4
587 -31 15 -67 17 -340 15 -168 -1 -424 -5 -570 -8 l-264 -7 -440 -159 c-242
-87 -444 -159 -450 -159 -6 0 -50 16 -98 36 l-88 37 -2 1111 -3 1111 -24 58
c-54 135 -198 222 -311 188z m-407 -2867 c25 -18 52 -50 69 -83 l28 -53 0
-1009 c0 -884 -2 -1014 -15 -1046 -49 -117 -153 -169 -253 -127 -54 22 -89 60
-112 121 -20 52 -20 78 -20 1047 0 863 2 999 15 1037 48 136 181 188 288 113z"/>
<path d="M4350 7029 c-108 -21 -220 -103 -292 -213 -94 -146 -119 -354 -63
-529 67 -211 224 -350 409 -364 128 -10 228 29 330 130 116 115 172 273 163
462 -17 332 -268 569 -547 514z"/>
<path d="M1190 5055 c-57 -18 -122 -73 -157 -132 -52 -90 -53 -99 -53 -908 0
-825 0 -819 61 -920 39 -64 84 -99 158 -121 63 -18 104 -13 178 22 59 29 101
76 141 161 l27 58 0 800 0 800 -24 58 c-32 81 -113 161 -183 182 -62 18 -88
18 -148 0z"/>
<path d="M170 4303 c-199 -105 -209 -442 -17 -565 47 -30 59 -33 127 -33 66 0
81 4 120 29 58 37 87 74 118 149 21 53 24 72 20 151 -6 122 -43 196 -131 261
-31 23 -51 29 -110 32 -65 4 -78 2 -127 -24z"/>
<path d="M4904 1307 c-28 -19 -57 -37 -65 -40 -8 -4 -41 -25 -74 -47 -33 -21
-94 -60 -135 -85 -41 -25 -138 -86 -215 -135 -77 -49 -177 -112 -222 -140 -46
-28 -83 -53 -83 -55 0 -4 29 -72 58 -135 11 -25 40 -90 64 -145 25 -55 75
-169 112 -253 74 -166 114 -215 184 -228 70 -13 155 33 192 105 11 22 56 233
110 512 50 261 100 519 111 573 10 55 18 101 16 102 -2 2 -26 -11 -53 -29z"/>
</g>
</svg>
